<svg xmlns="http://www.w3.org/2000/svg" width="3205.844" height="763" viewBox="0 0 3205.844 763"><g transform="translate(756.999 -4868)"><path d="M33.144,93a32.926,32.926,0,1,1,0-65.851,33.7,33.7,0,0,1,4.118.252,46.875,46.875,0,0,1,89.482,17.774,24.638,24.638,0,0,1,5.833-.7,24.261,24.261,0,1,1,0,48.522Z" transform="translate(287 5041)" fill="#fff" opacity="0.8"/><path d="M15.833,45A15.932,15.932,0,1,1,17.8,13.258a22.34,22.34,0,0,1,42.746,8.6A11.731,11.731,0,1,1,63.333,45Z" transform="translate(-486 4868)" fill="#fff" opacity="0.54"/><path d="M56.577,159a56.293,56.293,0,1,1,0-112.584,57.439,57.439,0,0,1,7.03.43A79.941,79.941,0,0,1,136.482,0c43.368,0,78.665,34.377,79.871,77.235A41.511,41.511,0,1,1,226.311,159Z" transform="translate(-313 5324)" fill="#fff"/><path d="M33.144,0a32.926,32.926,0,1,0,0,65.851,33.7,33.7,0,0,0,4.118-.252,46.875,46.875,0,0,0,89.482-17.774,24.638,24.638,0,0,0,5.833.7,24.261,24.261,0,1,0,0-48.522Z" transform="translate(2021 5324) rotate(180)" fill="#fff" opacity="0.72"/><path d="M68.4,0C30.623,0,0,30.433,0,67.975s30.623,67.976,68.4,67.976a69.52,69.52,0,0,0,8.5-.52A96.651,96.651,0,0,0,165,192c52.429,0,95.1-41.512,96.561-93.264a50.826,50.826,0,0,0,12.038,1.438A50.088,50.088,0,1,0,273.6,0Z" transform="translate(1493 5631) rotate(180)" fill="#fff"/><path d="M3.106,132v-.005A34.434,34.434,0,0,1,3.719,63.13a34.568,34.568,0,0,1,13.345,2.66A46.928,46.928,0,0,1,59.715,38.535a47.557,47.557,0,0,1,5.828.357A66.3,66.3,0,0,1,192.181,64.119,34.456,34.456,0,1,1,200.437,132Z" transform="translate(318 5258)" fill="#fff" opacity="0.87"/><path d="M33.951,0V.005a34.436,34.436,0,1,0,13.957,66.2A46.928,46.928,0,0,0,90.56,93.465a47.556,47.556,0,0,0,5.828-.357A66.3,66.3,0,0,0,223.026,67.881a34.606,34.606,0,0,0,42.818-33.447A34.5,34.5,0,0,0,231.282,0Z" transform="translate(-411 5324) rotate(180)" fill="#fff"/><path d="M5.855,0h0A6,6,0,0,0,5.96,12a5.908,5.908,0,0,0,2.3-.464,8.077,8.077,0,0,0,8.36,4.687,11.413,11.413,0,0,0,21.839-4.4A5.961,5.961,0,0,0,45.844,6a5.98,5.98,0,0,0-5.96-6Z" transform="translate(291 4891) rotate(180)" fill="#fff" opacity="0.54"/><path d="M33.951,0V.005a34.436,34.436,0,1,0,13.957,66.2A46.928,46.928,0,0,0,90.56,93.465a47.556,47.556,0,0,0,5.828-.357A66.3,66.3,0,0,0,223.026,67.881a34.606,34.606,0,0,0,42.818-33.447A34.5,34.5,0,0,0,231.282,0Z" transform="translate(-132 5145) rotate(180)" fill="#fff" opacity="0.79"/><path d="M18.753,0V0a19.044,19.044,0,1,0,7.71,36.613,25.92,25.92,0,0,0,23.56,15.073,26.238,26.238,0,0,0,3.219-.2A36.616,36.616,0,0,0,123.193,37.54,19.052,19.052,0,1,0,127.753,0Z" transform="translate(1478 5264) rotate(180)" fill="#fff"/><path d="M23.99,93v0a24.262,24.262,0,1,1,9.862-46.644,33.165,33.165,0,0,1,30.137-19.2,33.7,33.7,0,0,1,4.118.252,46.875,46.875,0,0,1,89.482,17.773,24.639,24.639,0,0,1,5.834-.7,24.261,24.261,0,1,1,0,48.522Z" transform="translate(1607 5077)" fill="#fff" opacity="0.72"/><path d="M44.423,172v-.007A44.871,44.871,0,1,1,62.685,85.727a61.418,61.418,0,0,1,55.808-35.515,62.481,62.481,0,0,1,7.626.465A86.733,86.733,0,0,1,205.173,0c47.046,0,85.338,37.186,86.646,83.548a45.679,45.679,0,0,1,10.8-1.288,44.871,44.871,0,1,1,0,89.739Z" transform="translate(2101 5339)" fill="#fff"/><path d="M2.889,397a15.791,15.791,0,1,1,0-31.582,15.9,15.9,0,0,1,13.624,7.662,12.14,12.14,0,0,1,3.271.847,16.448,16.448,0,0,1,14.945-9.5,16.817,16.817,0,0,1,2.042.124,23.257,23.257,0,0,1,44.375,8.791,12.25,12.25,0,0,1,8.942,1.257,20.027,20.027,0,1,1,21.261,22.352V397Z" transform="translate(0 4582)" fill="#fff" opacity="0.65"/><path d="M13.778,429a26.776,26.776,0,1,1,22.961-40.56,20.36,20.36,0,0,1,5.512,1.436,27.71,27.71,0,0,1,25.188-16.1,28.167,28.167,0,0,1,3.442.211,39.15,39.15,0,0,1,74.785,14.907,20.531,20.531,0,0,1,15.069,2.132,33.765,33.765,0,1,1,35.831,37.9V429Z" transform="translate(1068 4783)" fill="#fff" opacity="0.78"/><path d="M13.778,429a26.776,26.776,0,1,1,22.961-40.56,20.36,20.36,0,0,1,5.512,1.436,27.71,27.71,0,0,1,25.188-16.1,28.167,28.167,0,0,1,3.442.211,39.15,39.15,0,0,1,74.785,14.907,20.531,20.531,0,0,1,15.069,2.132,33.765,33.765,0,1,1,35.831,37.9V429Z" transform="translate(1845 4600)" fill="#fff"/><path d="M37.263,65.6a33.7,33.7,0,0,1-4.118.252A33.167,33.167,0,0,1,3.758,48.168a24.74,24.74,0,0,1-4.18.354,24.82,24.82,0,0,1-3.13-.2,33.168,33.168,0,0,1-29.3,17.527A33.035,33.035,0,0,1-66,32.926,33.009,33.009,0,0,1-36.856.237V0H132.578a24.261,24.261,0,1,1,0,48.522,24.639,24.639,0,0,1-5.834-.7A46.875,46.875,0,0,1,37.263,65.6Z" transform="translate(807 5159) rotate(180)" fill="#fff" opacity="0.8"/><path d="M59.953,79.707a41.265,41.265,0,0,1-5.023.306A40.475,40.475,0,0,1,19.086,58.526a30.463,30.463,0,0,1-8.916.19,40.477,40.477,0,0,1-35.743,21.3A40.218,40.218,0,0,1-66,40.006,40.163,40.163,0,0,1-30.452.288V0H176.212A29.635,29.635,0,0,1,206,29.479a29.634,29.634,0,0,1-29.788,29.478,30.162,30.162,0,0,1-7.115-.846C168.234,88.568,143.012,113,112.024,113A57.137,57.137,0,0,1,59.953,79.707Z" transform="translate(1696 5408) rotate(180)" fill="#fff" opacity="0.86"/><path d="M189.855,50.381a61.962,61.962,0,0,0-7.572-.463,60.978,60.978,0,0,0-54.029,32.515,45.741,45.741,0,0,0-13.439-.288,60.828,60.828,0,1,0-61.232,88.418V171H365.1a44.61,44.61,0,1,0,0-89.217,45.3,45.3,0,0,0-10.725,1.281C353.074,36.971,315.055,0,268.345,0A86.108,86.108,0,0,0,189.855,50.381Z" transform="translate(701.001 5266)" fill="#fff"/><path d="M59.953,79.707a41.265,41.265,0,0,1-5.023.306A40.475,40.475,0,0,1,19.086,58.526a30.463,30.463,0,0,1-8.916.19,40.477,40.477,0,0,1-35.743,21.3A40.218,40.218,0,0,1-66,40.006,40.163,40.163,0,0,1-30.452.288V0H176.212A29.635,29.635,0,0,1,206,29.479a29.634,29.634,0,0,1-29.788,29.478,30.162,30.162,0,0,1-7.115-.846C168.234,88.568,143.012,113,112.024,113A57.137,57.137,0,0,1,59.953,79.707Z" transform="translate(2283 5206) rotate(180)" fill="#fff" opacity="0.71"/><path d="M18.74,53.608a27.772,27.772,0,0,1-3.38.206A27.232,27.232,0,0,1-8.755,39.363a20.385,20.385,0,0,1-3.43.289,20.452,20.452,0,0,1-2.568-.161A27.234,27.234,0,0,1-38.8,53.814,27.054,27.054,0,0,1-66,26.907,27.016,27.016,0,0,1-42.084.194V0H96.959A19.935,19.935,0,0,1,117,19.826,19.934,19.934,0,0,1,96.959,39.652a20.3,20.3,0,0,1-4.787-.569A38.5,38.5,0,0,1,18.74,53.608Z" transform="translate(1475 4989) rotate(180)" fill="#fff"/><path d="M-17.379,31.036a15.794,15.794,0,0,1-1.939.119,15.607,15.607,0,0,1-13.837-8.366,11.594,11.594,0,0,1-1.968.167,11.631,11.631,0,0,1-1.474-.093,15.607,15.607,0,0,1-13.8,8.292A15.592,15.592,0,0,1-66,15.578,15.59,15.59,0,0,1-52.277.112V0H27.5a11.478,11.478,0,1,1-2.747,22.627A22.022,22.022,0,0,1,2.722,44,22.047,22.047,0,0,1-17.379,31.036Z" transform="translate(1045 4985) rotate(180)" fill="#fff"/><path d="M37.263,65.6a33.7,33.7,0,0,1-4.118.252A33.167,33.167,0,0,1,3.758,48.168a24.74,24.74,0,0,1-4.18.354,24.82,24.82,0,0,1-3.13-.2,33.168,33.168,0,0,1-29.3,17.527A33.035,33.035,0,0,1-66,32.926,33.009,33.009,0,0,1-36.856.237V0H132.578a24.261,24.261,0,1,1,0,48.522,24.639,24.639,0,0,1-5.834-.7A46.875,46.875,0,0,1,37.263,65.6Z" transform="translate(103 5274) rotate(180)" fill="#fff" opacity="0.79"/><path d="M83.351,22.1a27.229,27.229,0,0,0-3.324-.2,26.774,26.774,0,0,0-23.72,14.261,20.1,20.1,0,0,0-5.9-.126,26.7,26.7,0,1,0-26.882,38.78V75H160.287a19.566,19.566,0,1,0,0-39.13,19.905,19.905,0,0,0-4.709.562A37.843,37.843,0,0,0,83.351,22.1Z" transform="translate(-756.999 4966)" fill="#fff" opacity="0.63"/><path d="M27.233,0A27.071,27.071,0,0,0,0,26.907,27.072,27.072,0,0,0,27.233,53.814a27.839,27.839,0,0,0,3.384-.206A38.555,38.555,0,0,0,104.14,39.083a20.349,20.349,0,0,0,4.793.569A19.947,19.947,0,0,0,129,19.826,19.948,19.948,0,0,0,108.933,0Z" transform="translate(705 4994) rotate(180)" fill="#fff"/></g></svg>