<svg xmlns="http://www.w3.org/2000/svg" width="3511.844" height="400" viewBox="0 0 3511.844 400"><g transform="translate(1062.999 -5231)"><path d="M56.577,159a56.293,56.293,0,1,1,0-112.584,57.439,57.439,0,0,1,7.03.43A79.941,79.941,0,0,1,136.482,0c43.368,0,78.665,34.377,79.871,77.235A41.511,41.511,0,1,1,226.311,159Z" transform="translate(-313 5324)" fill="#fff"/><path d="M33.144,0a32.926,32.926,0,1,0,0,65.851,33.7,33.7,0,0,0,4.118-.252,46.875,46.875,0,0,0,89.482-17.774,24.638,24.638,0,0,0,5.833.7,24.261,24.261,0,1,0,0-48.522Z" transform="translate(2021 5324) rotate(180)" fill="#fff" opacity="0.72"/><path d="M68.4,0C30.623,0,0,30.433,0,67.975s30.623,67.976,68.4,67.976a69.52,69.52,0,0,0,8.5-.52A96.651,96.651,0,0,0,165,192c52.429,0,95.1-41.512,96.561-93.264a50.826,50.826,0,0,0,12.038,1.438A50.088,50.088,0,1,0,273.6,0Z" transform="translate(1493 5631) rotate(180)" fill="#fff"/><path d="M3.106,132v-.005A34.434,34.434,0,0,1,3.719,63.13a34.568,34.568,0,0,1,13.345,2.66A46.928,46.928,0,0,1,59.715,38.535a47.557,47.557,0,0,1,5.828.357A66.3,66.3,0,0,1,192.181,64.119,34.456,34.456,0,1,1,200.437,132Z" transform="translate(318 5258)" fill="#fff" opacity="0.87"/><path d="M44.423,172v-.007A44.871,44.871,0,1,1,62.685,85.727a61.418,61.418,0,0,1,55.808-35.515,62.481,62.481,0,0,1,7.626.465A86.733,86.733,0,0,1,205.173,0c47.046,0,85.338,37.186,86.646,83.548a45.679,45.679,0,0,1,10.8-1.288,44.871,44.871,0,1,1,0,89.739Z" transform="translate(2101 5339)" fill="#fff"/><path d="M59.953,79.707a41.265,41.265,0,0,1-5.023.306A40.475,40.475,0,0,1,19.086,58.526a30.463,30.463,0,0,1-8.916.19,40.477,40.477,0,0,1-35.743,21.3A40.218,40.218,0,0,1-66,40.006,40.163,40.163,0,0,1-30.452.288V0H176.212A29.635,29.635,0,0,1,206,29.479a29.634,29.634,0,0,1-29.788,29.478,30.162,30.162,0,0,1-7.115-.846C168.234,88.568,143.012,113,112.024,113A57.137,57.137,0,0,1,59.953,79.707Z" transform="translate(1696 5408) rotate(180)" fill="#fff" opacity="0.86"/><path d="M189.855,50.381a61.962,61.962,0,0,0-7.572-.463,60.978,60.978,0,0,0-54.029,32.515,45.741,45.741,0,0,0-13.439-.288,60.828,60.828,0,1,0-61.232,88.418V171H365.1a44.61,44.61,0,1,0,0-89.217,45.3,45.3,0,0,0-10.725,1.281C353.074,36.971,315.055,0,268.345,0A86.108,86.108,0,0,0,189.855,50.381Z" transform="translate(701.001 5266)" fill="#fff"/><path d="M237.55,150.95a77.514,77.514,0,0,1-9.474.579,76.3,76.3,0,0,1-67.6-40.691,57.221,57.221,0,0,1-16.815.36,76.3,76.3,0,0,1-67.412,40.331C34.137,151.529,0,117.608,0,75.764,0,37.016,29.274,5.062,67.044.546V0H456.819a55.827,55.827,0,1,1,0,111.652,56.665,56.665,0,0,1-13.42-1.6C441.773,167.731,394.2,214,335.758,214A107.739,107.739,0,0,1,237.55,150.95Z" transform="translate(-550 5565) rotate(180)" fill="#fff"/></g></svg>