<svg xmlns="http://www.w3.org/2000/svg" width="2830" height="173" viewBox="0 0 2830 173"><g transform="translate(756.999 -4868)"><path d="M15.833,45A15.932,15.932,0,1,1,17.8,13.258a22.34,22.34,0,0,1,42.746,8.6A11.731,11.731,0,1,1,63.333,45Z" transform="translate(-486 4868)" fill="#fff" opacity="0.54"/><path d="M5.855,0h0A6,6,0,0,0,5.96,12a5.908,5.908,0,0,0,2.3-.464,8.077,8.077,0,0,0,8.36,4.687,11.413,11.413,0,0,0,21.839-4.4A5.961,5.961,0,0,0,45.844,6a5.98,5.98,0,0,0-5.96-6Z" transform="translate(291 4891) rotate(180)" fill="#fff" opacity="0.54"/><path d="M2.889,397a15.791,15.791,0,1,1,0-31.582,15.9,15.9,0,0,1,13.624,7.662,12.14,12.14,0,0,1,3.271.847,16.448,16.448,0,0,1,14.945-9.5,16.817,16.817,0,0,1,2.042.124,23.257,23.257,0,0,1,44.375,8.791,12.25,12.25,0,0,1,8.942,1.257,20.027,20.027,0,1,1,21.261,22.352V397Z" transform="translate(0 4582)" fill="#fff" opacity="0.65"/><path d="M13.778,429a26.776,26.776,0,1,1,22.961-40.56,20.36,20.36,0,0,1,5.512,1.436,27.71,27.71,0,0,1,25.188-16.1,28.167,28.167,0,0,1,3.442.211,39.15,39.15,0,0,1,74.785,14.907,20.531,20.531,0,0,1,15.069,2.132,33.765,33.765,0,1,1,35.831,37.9V429Z" transform="translate(1845 4600)" fill="#fff"/><path d="M18.74,53.608a27.772,27.772,0,0,1-3.38.206A27.232,27.232,0,0,1-8.755,39.363a20.385,20.385,0,0,1-3.43.289,20.452,20.452,0,0,1-2.568-.161A27.234,27.234,0,0,1-38.8,53.814,27.054,27.054,0,0,1-66,26.907,27.016,27.016,0,0,1-42.084.194V0H96.959A19.935,19.935,0,0,1,117,19.826,19.934,19.934,0,0,1,96.959,39.652a20.3,20.3,0,0,1-4.787-.569A38.5,38.5,0,0,1,18.74,53.608Z" transform="translate(1475 4989) rotate(180)" fill="#fff"/><path d="M-17.379,31.036a15.794,15.794,0,0,1-1.939.119,15.607,15.607,0,0,1-13.837-8.366,11.594,11.594,0,0,1-1.968.167,11.631,11.631,0,0,1-1.474-.093,15.607,15.607,0,0,1-13.8,8.292A15.592,15.592,0,0,1-66,15.578,15.59,15.59,0,0,1-52.277.112V0H27.5a11.478,11.478,0,1,1-2.747,22.627A22.022,22.022,0,0,1,2.722,44,22.047,22.047,0,0,1-17.379,31.036Z" transform="translate(1045 4985) rotate(180)" fill="#fff"/><path d="M83.351,22.1a27.229,27.229,0,0,0-3.324-.2,26.774,26.774,0,0,0-23.72,14.261,20.1,20.1,0,0,0-5.9-.126,26.7,26.7,0,1,0-26.882,38.78V75H160.287a19.566,19.566,0,1,0,0-39.13,19.905,19.905,0,0,0-4.709.562A37.843,37.843,0,0,0,83.351,22.1Z" transform="translate(-756.999 4966)" fill="#fff" opacity="0.63"/><path d="M27.233,0A27.071,27.071,0,0,0,0,26.907,27.072,27.072,0,0,0,27.233,53.814a27.839,27.839,0,0,0,3.384-.206A38.555,38.555,0,0,0,104.14,39.083a20.349,20.349,0,0,0,4.793.569A19.947,19.947,0,0,0,129,19.826,19.948,19.948,0,0,0,108.933,0Z" transform="translate(705 4994) rotate(180)" fill="#fff"/></g></svg>