<svg xmlns="http://www.w3.org/2000/svg" width="3025.845" height="311" viewBox="0 0 3025.845 311"><g transform="translate(676.845 -5013)"><path d="M33.144,93a32.926,32.926,0,1,1,0-65.851,33.7,33.7,0,0,1,4.118.252,46.875,46.875,0,0,1,89.482,17.774,24.638,24.638,0,0,1,5.833-.7,24.261,24.261,0,1,1,0,48.522Z" transform="translate(287 5041)" fill="#fff" opacity="0.8"/><path d="M33.951,0V.005a34.436,34.436,0,1,0,13.957,66.2A46.928,46.928,0,0,0,90.56,93.465a47.556,47.556,0,0,0,5.828-.357A66.3,66.3,0,0,0,223.026,67.881a34.606,34.606,0,0,0,42.818-33.447A34.5,34.5,0,0,0,231.282,0Z" transform="translate(-411 5324) rotate(180)" fill="#fff"/><path d="M33.951,0V.005a34.436,34.436,0,1,0,13.957,66.2A46.928,46.928,0,0,0,90.56,93.465a47.556,47.556,0,0,0,5.828-.357A66.3,66.3,0,0,0,223.026,67.881a34.606,34.606,0,0,0,42.818-33.447A34.5,34.5,0,0,0,231.282,0Z" transform="translate(-132 5145) rotate(180)" fill="#fff" opacity="0.79"/><path d="M18.753,0V0a19.044,19.044,0,1,0,7.71,36.613,25.92,25.92,0,0,0,23.56,15.073,26.238,26.238,0,0,0,3.219-.2A36.616,36.616,0,0,0,123.193,37.54,19.052,19.052,0,1,0,127.753,0Z" transform="translate(1478 5264) rotate(180)" fill="#fff"/><path d="M23.99,93v0a24.262,24.262,0,1,1,9.862-46.644,33.165,33.165,0,0,1,30.137-19.2,33.7,33.7,0,0,1,4.118.252,46.875,46.875,0,0,1,89.482,17.773,24.639,24.639,0,0,1,5.834-.7,24.261,24.261,0,1,1,0,48.522Z" transform="translate(1607 5077)" fill="#fff" opacity="0.72"/><path d="M13.778,429a26.776,26.776,0,1,1,22.961-40.56,20.36,20.36,0,0,1,5.512,1.436,27.71,27.71,0,0,1,25.188-16.1,28.167,28.167,0,0,1,3.442.211,39.15,39.15,0,0,1,74.785,14.907,20.531,20.531,0,0,1,15.069,2.132,33.765,33.765,0,1,1,35.831,37.9V429Z" transform="translate(1068 4783)" fill="#fff" opacity="0.78"/><path d="M37.263,65.6a33.7,33.7,0,0,1-4.118.252A33.167,33.167,0,0,1,3.758,48.168a24.74,24.74,0,0,1-4.18.354,24.82,24.82,0,0,1-3.13-.2,33.168,33.168,0,0,1-29.3,17.527A33.035,33.035,0,0,1-66,32.926,33.009,33.009,0,0,1-36.856.237V0H132.578a24.261,24.261,0,1,1,0,48.522,24.639,24.639,0,0,1-5.834-.7A46.875,46.875,0,0,1,37.263,65.6Z" transform="translate(807 5159) rotate(180)" fill="#fff" opacity="0.8"/><path d="M59.953,79.707a41.265,41.265,0,0,1-5.023.306A40.475,40.475,0,0,1,19.086,58.526a30.463,30.463,0,0,1-8.916.19,40.477,40.477,0,0,1-35.743,21.3A40.218,40.218,0,0,1-66,40.006,40.163,40.163,0,0,1-30.452.288V0H176.212A29.635,29.635,0,0,1,206,29.479a29.634,29.634,0,0,1-29.788,29.478,30.162,30.162,0,0,1-7.115-.846C168.234,88.568,143.012,113,112.024,113A57.137,57.137,0,0,1,59.953,79.707Z" transform="translate(2283 5206) rotate(180)" fill="#fff" opacity="0.71"/><path d="M37.263,65.6a33.7,33.7,0,0,1-4.118.252A33.167,33.167,0,0,1,3.758,48.168a24.74,24.74,0,0,1-4.18.354,24.82,24.82,0,0,1-3.13-.2,33.168,33.168,0,0,1-29.3,17.527A33.035,33.035,0,0,1-66,32.926,33.009,33.009,0,0,1-36.856.237V0H132.578a24.261,24.261,0,1,1,0,48.522,24.639,24.639,0,0,1-5.834-.7A46.875,46.875,0,0,1,37.263,65.6Z" transform="translate(103 5274) rotate(180)" fill="#fff" opacity="0.79"/></g></svg>