<svg xmlns="http://www.w3.org/2000/svg" width="480.576" height="561.384" viewBox="0 0 480.576 561.384"><defs><style>.a{opacity:0.3;}.b,.c{fill:none;stroke:#fff;stroke-linecap:round;stroke-linejoin:round;stroke-miterlimit:10;}.b{stroke-width:5px;}.c{stroke-width:5.143px;}.d{fill:#fff;}</style></defs><g class="a" transform="translate(-67.19 -70.14)"><g transform="translate(69.69 72.64)"><rect class="b" width="382.427" height="88.458" transform="translate(50.4 467.926)"/><path class="b" d="M79.23,442.357v98.209H547.156V72.64H79.23v97.471" transform="translate(-71.58 -72.64)"/><line class="b" y2="167.646" transform="translate(7.65 149.771)"/><path class="c" d="M114.64,450.085v70.976H527.66V108.05H114.64v69.076" transform="translate(-78.594 -79.655)"/><line class="b" y2="167.646" transform="translate(36.046 149.771)"/><path class="b" d="M127.34,451.888v59.629H518.107V120.75H127.34v58.892" transform="translate(-81.11 -82.17)"/><line class="b" y2="167.646" transform="translate(46.23 149.771)"/><g transform="translate(144.094 185.159)"><path class="b" d="M336.3,360.865a27.575,27.575,0,0,1-.192-3.272,27.97,27.97,0,0,1,16.9-25.693" transform="translate(-266.561 -260.074)"/><path class="b" d="M340.224,391.94l-4.755,2.751L299.88,415.267h0a73.146,73.146,0,0,0,114.063,0h0l-35.588-20.577L373.6,391.94h0a28,28,0,0,1-33.375,0" transform="translate(-259.384 -271.967)"/><path class="b" d="M341.851,320.387V273.78h0a73.195,73.195,0,0,0-57.063,98.9h0l35.6-20.585,4.763-2.751" transform="translate(-255.406 -248.56)"/><path class="b" d="M384.81,320.389a27.983,27.983,0,0,1,16.9,25.693,27.569,27.569,0,0,1-.192,3.272h0l4.763,2.75,35.6,20.585h0a73.195,73.195,0,0,0-57.063-98.9h0v46.6" transform="translate(-276.208 -248.562)"/><circle class="b" cx="97.519" cy="97.519" r="97.519"/><circle class="b" cx="13.696" cy="13.696" r="13.696" transform="translate(81.814 86.192) rotate(-9.218)"/></g><g transform="translate(216.057 76.77)"><path class="d" d="M387.026,140.978v7.65h-44.7v-7.65h44.7m3.208-3.208H339.12v14.065h51.113V137.77Z" transform="translate(-339.12 -137.77)"/><g transform="translate(0 17.858)"><path class="d" d="M349.184,163.248V170.1h-6.856v-6.848h6.856m.241-3.208h-7.345A2.957,2.957,0,0,0,339.12,163v7.345a2.957,2.957,0,0,0,2.959,2.959h7.345a2.957,2.957,0,0,0,2.959-2.959V163a2.957,2.957,0,0,0-2.959-2.959Z" transform="translate(-339.12 -160.04)"/></g><g transform="translate(18.925 17.858)"><path class="d" d="M372.784,163.248V170.1h-6.856v-6.848h6.856m.241-3.208h-7.345A2.957,2.957,0,0,0,362.72,163v7.345a2.957,2.957,0,0,0,2.959,2.959h7.345a2.957,2.957,0,0,0,2.959-2.959V163a2.957,2.957,0,0,0-2.959-2.959Z" transform="translate(-362.72 -160.04)"/></g><g transform="translate(37.85 17.858)"><path class="d" d="M396.376,163.248V170.1H389.52v-6.848h6.856m.249-3.208h-7.345A2.957,2.957,0,0,0,386.32,163v7.345a2.957,2.957,0,0,0,2.959,2.959h7.345a2.957,2.957,0,0,0,2.959-2.959V163a2.962,2.962,0,0,0-2.959-2.959Z" transform="translate(-386.32 -160.04)"/></g><g transform="translate(0 35.444)"><path class="d" d="M349.184,185.178v6.856h-6.856v-6.856h6.856m.241-3.208h-7.345a2.957,2.957,0,0,0-2.959,2.959v7.345a2.957,2.957,0,0,0,2.959,2.959h7.345a2.957,2.957,0,0,0,2.959-2.959v-7.345a2.952,2.952,0,0,0-2.959-2.959Z" transform="translate(-339.12 -181.97)"/></g><g transform="translate(18.925 35.444)"><path class="d" d="M372.784,185.178v6.856h-6.856v-6.856h6.856m.241-3.208h-7.345a2.957,2.957,0,0,0-2.959,2.959v7.345a2.957,2.957,0,0,0,2.959,2.959h7.345a2.957,2.957,0,0,0,2.959-2.959v-7.345a2.952,2.952,0,0,0-2.959-2.959Z" transform="translate(-362.72 -181.97)"/></g><g transform="translate(37.85 35.444)"><path class="d" d="M396.376,185.178v6.856H389.52v-6.856h6.856m.249-3.208h-7.345a2.957,2.957,0,0,0-2.959,2.959v7.345a2.957,2.957,0,0,0,2.959,2.959h7.345a2.957,2.957,0,0,0,2.959-2.959v-7.345a2.957,2.957,0,0,0-2.959-2.959Z" transform="translate(-386.32 -181.97)"/></g><g transform="translate(0 53.022)"><path class="d" d="M349.184,207.1v6.848h-6.856V207.1h6.856m.241-3.208h-7.345a2.957,2.957,0,0,0-2.959,2.959v7.345a2.957,2.957,0,0,0,2.959,2.959h7.345a2.957,2.957,0,0,0,2.959-2.959v-7.345a2.952,2.952,0,0,0-2.959-2.959Z" transform="translate(-339.12 -203.89)"/></g><g transform="translate(18.925 53.022)"><path class="d" d="M372.784,207.1v6.848h-6.856V207.1h6.856m.241-3.208h-7.345a2.957,2.957,0,0,0-2.959,2.959v7.345a2.957,2.957,0,0,0,2.959,2.959h7.345a2.957,2.957,0,0,0,2.959-2.959v-7.345a2.952,2.952,0,0,0-2.959-2.959Z" transform="translate(-362.72 -203.89)"/></g><g transform="translate(37.85 53.022)"><path class="d" d="M396.376,207.1v6.848H389.52V207.1h6.856m.249-3.208h-7.345a2.957,2.957,0,0,0-2.959,2.959v7.345a2.957,2.957,0,0,0,2.959,2.959h7.345a2.957,2.957,0,0,0,2.959-2.959v-7.345a2.957,2.957,0,0,0-2.959-2.959Z" transform="translate(-386.32 -203.89)"/></g></g><g transform="translate(0 97.471)"><path class="b" d="M119.883,246.49H74.447a4.747,4.747,0,0,1-4.747-4.747V198.937a4.747,4.747,0,0,1,4.747-4.747h45.444a4.747,4.747,0,0,1,4.747,4.747v42.806A4.749,4.749,0,0,1,119.883,246.49Z" transform="translate(-69.692 -194.19)"/><rect class="b" width="45.909" height="34.835" transform="translate(0 9.358)"/></g><g transform="translate(0 317.417)"><path class="b" d="M119.883,468.47H74.447a4.747,4.747,0,0,0-4.747,4.747v42.806a4.747,4.747,0,0,0,4.747,4.747h45.444a4.747,4.747,0,0,0,4.747-4.747V473.217A4.749,4.749,0,0,0,119.883,468.47Z" transform="translate(-69.692 -468.47)"/><rect class="b" width="45.909" height="34.835" transform="translate(0 8.107)"/></g></g></g></svg>