<svg xmlns="http://www.w3.org/2000/svg" viewBox="0 0 150.04 151.63"><g id="Layer_2" data-name="Layer 2"><g id="Layer_1-2" data-name="Layer 1"><path class="cls-1" d="M64.85,69.36a44.39,44.39,0,1,1,14.94,15.3L58.74,91.84Z"/><line class="cls-1" x1="134.65" y1="35.33" x2="73.63" y2="35.33"/><line class="cls-1" x1="134.65" y1="47.67" x2="73.63" y2="47.67"/><line class="cls-1" x1="113.64" y1="59.04" x2="73.46" y2="59.04"/><path class="cls-1" d="M45.34,106.29c10,10,21.61,19.59,26.2,15,6.56-6.57,10.61-12.28,25.08-.65s3.36,19.38-3,25.75c-7.33,7.33-34.69.38-61.72-26.65S-2.11,65.35,5.24,58C11.6,51.65,19.35,40.54,31,55s5.92,18.52-.65,25.09c-4.57,4.58,5,16.18,15,26.19Z"/><path class="cls-1" d="M103.55,132c-3.58,3.39-11.08,2.07-17.16-3.14-5.08-4.35-7.63-10.1-6.69-14.24"/><path class="cls-1" d="M37.3,71.31c-4.26,3-11.57-.2-16.32-7-3.82-5.5-4.83-11.71-2.88-15.47"/></g></g></svg>