<svg xmlns="http://www.w3.org/2000/svg" viewBox="0 0 163.63 160.07"><g id="Layer_2" data-name="Layer 2"><g id="Layer_1-2" data-name="Layer 1"><circle class="cls-1" cx="46.07" cy="141.25" r="6.69"/><path class="cls-2" d="M89.13,97v51a9,9,0,0,1-9,9h-68a9,9,0,0,1-9-9V30.87a9,9,0,0,1,9.05-9H66.12"/><path class="cls-2" d="M66.12,21.82v6.47a4.83,4.83,0,0,1-4.83,4.83H30.84A4.83,4.83,0,0,1,26,28.29V21.82Z"/><path class="cls-3" d="M78.44,69.36a44.35,44.35,0,1,1,14.93,15.3l-21,7.18Z"/><line class="cls-3" x1="148.24" y1="35.33" x2="87.22" y2="35.33"/><line class="cls-3" x1="148.24" y1="47.67" x2="87.22" y2="47.67"/><line class="cls-3" x1="127.22" y1="59.04" x2="87.05" y2="59.04"/></g></g></svg>