<svg xmlns="http://www.w3.org/2000/svg" viewBox="0 0 121.67 141.91"><g id="Layer_2" data-name="Layer 2"><g id="Layer_1-2" data-name="Layer 1"><rect class="cls-1" x="2.5" y="12.62" width="116.67" height="116.67" rx="11.62"/><rect class="cls-1" x="14.43" y="130.23" width="21.3" height="9.18"/><rect class="cls-1" x="84.41" y="130.23" width="21.3" height="9.18"/><rect class="cls-1" x="84.41" y="2.5" width="21.3" height="9.18"/><circle class="cls-1" cx="60.8" cy="71.5" r="46.3"/><line class="cls-1" x1="60.8" y1="71.02" x2="60.84" y2="51.98"/><line class="cls-1" x1="51.31" y1="71.02" x2="60.8" y2="71.02"/><line class="cls-1" x1="60.8" y1="25.2" x2="60.8" y2="38.44"/><line class="cls-1" x1="60.84" y1="103.61" x2="60.84" y2="116.84"/><line class="cls-1" x1="106.24" y1="71.02" x2="93" y2="71.02"/><line class="cls-1" x1="27.83" y1="71.05" x2="14.59" y2="71.05"/><line class="cls-1" x1="93.94" y1="103.69" x2="84.58" y2="94.33"/><line class="cls-1" x1="38.47" y1="48.28" x2="29.11" y2="38.91"/><line class="cls-1" x1="92.79" y1="38.89" x2="83.43" y2="48.25"/><line class="cls-1" x1="37.37" y1="94.36" x2="28.01" y2="103.72"/></g></g></svg>