<svg xmlns="http://www.w3.org/2000/svg" viewBox="0 0 120.39 168.61"><defs></defs><g id="Layer_2" data-name="Layer 2"><g id="Layer_1-2" data-name="Layer 1"><path class="cls-1" d="M110,165.61H10.38A7.38,7.38,0,0,1,3,158.23V10.38A7.38,7.38,0,0,1,10.38,3H110a7.38,7.38,0,0,1,7.38,7.38V158.23a7.38,7.38,0,0,1-7.38,7.38"/><rect class="cls-1" x="3" y="3" width="114.39" height="162.61" rx="7.38"/><rect class="cls-1" x="15.43" y="113.38" width="89.52" height="14.26" rx="6.92"/><rect class="cls-1" x="15.43" y="139.45" width="89.52" height="14.26" rx="6.92"/><path class="cls-1" d="M103.38,56.85A43.19,43.19,0,1,1,60.19,13.67a43.19,43.19,0,0,1,43.19,43.18"/><path class="cls-1" d="M75,44.68A14.77,14.77,0,1,0,60.19,59.44,14.76,14.76,0,0,0,75,44.68Z"/><path class="cls-1" d="M32.54,89.86V76.57c0-9.46,12.38-17.13,27.65-17.13s27.66,7.67,27.66,17.13a7.94,7.94,0,0,1,0,.85l0,12.44v0a43.21,43.21,0,0,1-55.3,0Z"/></g></g></svg>