<svg xmlns="http://www.w3.org/2000/svg" viewBox="0 0 174.6 125.85"><g id="Layer_2" data-name="Layer 2"><g id="Layer_1-2" data-name="Layer 1"><path class="cls-1" d="M158.6,14.26A11.19,11.19,0,0,0,147.35,3H85.83A11.43,11.43,0,0,0,74.3,14.26V82.85l8.07-7.29c.37-.34.79-.66,1.09-.94,3.69-3.4,4.63-3.94,9.44-3.84l2.39,0h52.06A11.26,11.26,0,0,0,158.6,59.45Z"/><path class="cls-1" d="M147.35,70.8h13A11.26,11.26,0,0,0,171.6,59.45V14.26A11.19,11.19,0,0,0,160.35,3H148.67"/><path class="cls-1" d="M62.14,43H14.25A11.19,11.19,0,0,0,3,54.26V99.45A11.26,11.26,0,0,0,14.25,110.8H66.31l2.39,0c4.8-.1,5.75.44,9.43,3.84.31.28.73.59,1.1.93l8.07,7.3V88.54"/><polyline class="cls-1" points="87.3 122.85 100.97 122.85 100.97 88.55"/><line class="cls-2" x1="88.82" y1="19.18" x2="144.07" y2="19.18"/><line class="cls-2" x1="88.82" y1="32.09" x2="144.07" y2="32.09"/><line class="cls-2" x1="88.82" y1="45" x2="125.74" y2="45"/><line class="cls-2" x1="17.52" y1="58.75" x2="62.67" y2="58.75"/><line class="cls-2" x1="17.52" y1="71.65" x2="62.67" y2="71.65"/><line class="cls-2" x1="17.52" y1="84.56" x2="54.44" y2="84.56"/></g></g></svg>