<svg xmlns="http://www.w3.org/2000/svg" viewBox="0 0 124.67 141.16"><g id="Layer_2" data-name="Layer 2"><g id="Layer_1-2" data-name="Layer 1"><path class="cls-1" d="M118.17,57.26A59.84,59.84,0,1,1,17.62,39.06"/><path class="cls-1" d="M52,19.88a60.43,60.43,0,0,1,32.87,3.47"/><path class="cls-1" d="M90.74,54.8a102.59,102.59,0,0,1,2.76,24c0,33.05-14.72,59.84-32.88,59.84S27.74,111.87,27.74,78.82A103.67,103.67,0,0,1,30,57"/><path class="cls-1" d="M51.79,21.17A19.44,19.44,0,0,1,60.62,19c8,0,15.3,5.17,21,13.79"/><line class="cls-1" x1="62.34" y1="126.82" x2="62.34" y2="138.66"/><line class="cls-1" x1="62.34" y1="18.99" x2="62.34" y2="59.38"/><line class="cls-1" x1="84.83" y1="78.82" x2="122.17" y2="78.82"/><line class="cls-1" x1="2.5" y1="78.82" x2="37.33" y2="78.82"/><line class="cls-1" x1="43.17" y1="49.09" x2="87.49" y2="49.09"/><line class="cls-1" x1="10.4" y1="49.09" x2="21.36" y2="49.09"/><line class="cls-1" x1="76.01" y1="107.64" x2="114.69" y2="107.64"/><line class="cls-1" x1="10.4" y1="107.64" x2="46.04" y2="107.64"/><path class="cls-2" d="M44,19.08c0,.09-.05.17-.07.26L32,49.14,18.18,19.76h0A13.38,13.38,0,1,1,44,19h0Z"/><path class="cls-2" d="M118.24,34.76c0,.09,0,.17-.07.26l-12,29.8L92.41,35.43h0a13.38,13.38,0,1,1,25.84-.78h0Z"/><path class="cls-2" d="M73.63,86.38c0,.09,0,.17-.07.26l-12,29.8L47.8,87.05h0a13.38,13.38,0,1,1,25.84-.78h0Z"/></g></g></svg>