<svg xmlns="http://www.w3.org/2000/svg" viewBox="0 0 160.09 149.18"><g id="Layer_2" data-name="Layer 2"><g id="Layer_1-2" data-name="Layer 1"><line class="cls-1" x1="3" y1="60.87" x2="3" y2="111.96"/><polyline class="cls-1" points="129.25 52.6 157.09 34.24 97.78 3 3 60.87 61.24 95.08 88.76 77.5"/><polyline class="cls-1" points="3 77.84 61.24 112.05 88.76 94.47"/><line class="cls-1" x1="130.25" y1="68.57" x2="157.09" y2="51.21"/><polyline class="cls-1" points="3 94.9 61.24 129.12 88.76 111.53"/><line class="cls-1" x1="130.25" y1="85.63" x2="157.09" y2="68.27"/><polyline class="cls-1" points="3 111.96 61.24 146.18 88.76 128.6"/><line class="cls-1" x1="130.25" y1="102.69" x2="157.09" y2="85.33"/><polygon class="cls-1" points="61.47 25.43 119.64 59.01 119.64 110.8 100.22 123.03 100.22 71.24 42.63 37.36 61.47 25.43"/><line class="cls-1" x1="157.09" y1="34.35" x2="157.09" y2="85.44"/></g></g></svg>