<svg xmlns="http://www.w3.org/2000/svg" viewBox="0 0 135.32 136.54"><g id="Layer_2" data-name="Layer 2"><g id="Layer_1-2" data-name="Layer 1"><path class="cls-1" d="M3,120.57V69.65H29v50.92a13,13,0,0,1-25.95,0Z"/><path class="cls-1" d="M132.32,120.57a13,13,0,0,1-13,13H16c9.41,0,12.84-8,12.84-13V3H132.32Z"/><line class="cls-2" x1="79.77" y1="22.87" x2="115.18" y2="22.87"/><line class="cls-2" x1="79.77" y1="31.11" x2="115.18" y2="31.11"/><polyline class="cls-3" points="45.92 29.12 51.81 35.16 66.79 19.03"/><line class="cls-2" x1="79.77" y1="52.29" x2="115.18" y2="52.29"/><line class="cls-2" x1="79.77" y1="60.54" x2="115.18" y2="60.54"/><polyline class="cls-3" points="45.92 58.54 51.81 64.58 66.79 48.45"/><line class="cls-2" x1="79.77" y1="81.71" x2="115.18" y2="81.71"/><line class="cls-2" x1="79.77" y1="89.96" x2="115.18" y2="89.96"/><polyline class="cls-3" points="45.92 87.96 51.81 94 66.79 77.87"/></g></g></svg>