<svg xmlns="http://www.w3.org/2000/svg" viewBox="0 0 149.95 174.63"><g id="Layer_2" data-name="Layer 2"><g id="Layer_1-2" data-name="Layer 1"><polyline class="cls-1" points="61.72 28.9 61.72 14.76 87.84 14.76 87.84 28.83"/><polyline class="cls-1" points="18.72 53.86 11.22 46.37 22.3 35.29 29.8 42.79"/><path class="cls-1" d="M62.52,3H85.84a7.62,7.62,0,0,1,7.62,7.62v4.14a0,0,0,0,1,0,0H54.89a0,0,0,0,1,0,0V10.62A7.62,7.62,0,0,1,62.52,3Z"/><circle class="cls-1" cx="74.98" cy="99.66" r="71.98"/><line class="cls-1" x1="117.43" y1="99.8" x2="130.1" y2="99.8"/><line class="cls-1" x1="74.78" y1="46.75" x2="74.78" y2="78.79"/><path class="cls-2" d="M74.23,109.84a10,10,0,1,1,0-20.07c.82,0,10.44,1.94,28.6,5.76a4.36,4.36,0,0,1,0,8.55c-18.15,3.82-27.77,5.76-28.59,5.76"/><circle class="cls-1" cx="74.98" cy="99.65" r="55.5"/></g></g></svg>